<svg preserveAspectRatio="none" width="100%" height="100%" overflow="visible" style="display: block;" viewBox="0 0 704 623" fill="none" xmlns="http://www.w3.org/2000/svg">
<path id="Vector" d="M143.193 97.3816C132.005 113.095 124.974 131.38 114.684 147.688C84.8495 194.967 28.8957 223.948 8.2048 275.885C-6.68491 313.241 0.000270094 356.54 17.7491 392.625C35.498 428.71 63.2884 458.755 91.7695 487.128C140.886 536.052 195.1 582.778 260.653 605.25C327.146 628.04 399.44 623.963 469.592 619.609C510.311 617.08 553.254 613.819 586.942 590.78C627.191 563.236 645.272 513.843 660.976 467.655C679.195 414.101 697.551 359.926 702.676 303.581C707.814 247.235 698.518 187.656 665.645 141.634C625.727 85.745 558.226 57.897 494.317 32.7856C454.219 17.0028 413.072 1.02651 370.005 0.0314466C321.234 -1.088 292.863 27.9623 249.824 42.1143C209.492 55.3818 169.947 59.8042 143.193 97.3816Z" fill="var(--fill-0, #A1DBD0)"/>
</svg>
