<svg preserveAspectRatio="none" width="100%" height="100%" overflow="visible" style="display: block;" viewBox="0 0 639 660" fill="none" xmlns="http://www.w3.org/2000/svg">
<path id="Vector" d="M631.584 251.418C623.564 228.6 606.109 210.578 589.148 193.345C540.988 147.014 498.298 92.7619 441.557 56.6649C405.5 34.8224 364.226 23.4937 323.552 12.4321C232.889 -17.5062 183.127 6.67422 130.816 84.4658C97.8287 129.701 64.841 174.949 31.8533 220.197C15.0926 243.188 -2.49552 269.039 0.293485 297.361C3.69634 331.868 35.6432 355.861 50.5757 387.149C86.0055 461.093 18.2152 564.695 80.5075 629.488C200.608 714.587 425.25 600.698 544.844 542.852C573.295 528.771 603.026 513.609 620.868 487.331C637.909 462.242 641.632 429.966 637.402 399.92C634.079 376.354 611.327 339.549 616.798 317.653C619.24 307.874 630.796 299.859 633.679 288.717C636.801 276.64 635.694 263.094 631.597 251.404L631.584 251.418Z" fill="var(--fill-0, #BCEBDF)"/>
</svg>
