<svg width="658" height="693" viewBox="0 0 658 693" fill="none" xmlns="http://www.w3.org/2000/svg">
<path d="M31.24 423.864C16.5194 468.039 -5.1391 501.374 23.7383 549.017C113.423 655.6 402.556 749.031 507.707 650.113C563.033 586.57 589.439 500.602 629.948 426.315C653.518 378.669 664.907 346.833 638.567 293.863C605.426 234.593 581.719 167.148 538.495 114.875C517.174 93.6563 487.048 91.2793 461.022 80.7759C419.326 65.8451 403.822 14.1624 362.14 1.01771C259.548 -14.9345 46.9667 160.443 15.8706 260.39C-6.82116 336.181 54.4729 350.721 31.2467 423.88L31.24 423.864Z" fill="#A1DBD0"/>
</svg>
